<?xml version="1.0" encoding="UTF-8" standalone="no"?>
<svg
   xmlns:osb="http://www.openswatchbook.org/uri/2009/osb"
   xmlns:dc="http://purl.org/dc/elements/1.1/"
   xmlns:cc="http://creativecommons.org/ns#"
   xmlns:rdf="http://www.w3.org/1999/02/22-rdf-syntax-ns#"
   xmlns:svg="http://www.w3.org/2000/svg"
   xmlns="http://www.w3.org/2000/svg"
   xmlns:sodipodi="http://sodipodi.sourceforge.net/DTD/sodipodi-0.dtd"
   xmlns:inkscape="http://www.inkscape.org/namespaces/inkscape"
   width="1024"
   height="1024"
   viewBox="0 0 270.93333 270.93333"
   version="1.1"
   id="svg8"
   inkscape:version="1.0.2 (e86c8708, 2021-01-15)"
   sodipodi:docname="Neutrontech-v4.1.svg"
   inkscape:export-filename="/Users/pakou/Pictures/Neutrontech-v4.1.png"
   inkscape:export-xdpi="96.000008"
   inkscape:export-ydpi="96.000008">
  <defs
     id="defs2">
    <inkscape:path-effect
       effect="spiro"
       id="path-effect1195"
       is_visible="true"
       lpeversion="1" />
    <inkscape:path-effect
       effect="spiro"
       id="path-effect1191"
       is_visible="true"
       lpeversion="1" />
    <inkscape:path-effect
       effect="spiro"
       id="path-effect1187"
       is_visible="true"
       lpeversion="1" />
    <inkscape:path-effect
       effect="spiro"
       id="path-effect1183"
       is_visible="true"
       lpeversion="1" />
    <inkscape:path-effect
       effect="bspline"
       id="path-effect1156"
       is_visible="true"
       lpeversion="1"
       weight="33.333333"
       steps="2"
       helper_size="0"
       apply_no_weight="true"
       apply_with_weight="true"
       only_selected="false" />
    <inkscape:path-effect
       effect="simplify"
       id="path-effect1152"
       is_visible="true"
       lpeversion="1"
       steps="1"
       threshold="0.000408163"
       smooth_angles="360"
       helper_size="0"
       simplify_individual_paths="false"
       simplify_just_coalesce="false" />
    <inkscape:path-effect
       effect="simplify"
       id="path-effect1148"
       is_visible="true"
       lpeversion="1"
       steps="1"
       threshold="0.000408163"
       smooth_angles="360"
       helper_size="0"
       simplify_individual_paths="false"
       simplify_just_coalesce="false" />
    <inkscape:path-effect
       effect="powerstroke"
       id="path-effect1144"
       is_visible="true"
       lpeversion="1"
       offset_points="0,0.1322915"
       sort_points="true"
       interpolator_type="CubicBezierJohan"
       interpolator_beta="0.2"
       start_linecap_type="zerowidth"
       linejoin_type="extrp_arc"
       miter_limit="4"
       scale_width="1"
       end_linecap_type="zerowidth" />
    <inkscape:path-effect
       effect="simplify"
       id="path-effect1142"
       is_visible="true"
       lpeversion="1"
       steps="1"
       threshold="0.000408163"
       smooth_angles="360"
       helper_size="0"
       simplify_individual_paths="false"
       simplify_just_coalesce="false" />
    <inkscape:path-effect
       effect="powerstroke"
       id="path-effect1138"
       is_visible="true"
       lpeversion="1"
       offset_points="0,0.1322915"
       sort_points="true"
       interpolator_type="CubicBezierJohan"
       interpolator_beta="0.2"
       start_linecap_type="zerowidth"
       linejoin_type="extrp_arc"
       miter_limit="4"
       scale_width="1"
       end_linecap_type="zerowidth" />
    <inkscape:path-effect
       effect="simplify"
       id="path-effect1136"
       is_visible="true"
       lpeversion="1"
       steps="1"
       threshold="0.000408163"
       smooth_angles="360"
       helper_size="0"
       simplify_individual_paths="false"
       simplify_just_coalesce="false" />
    <inkscape:path-effect
       effect="powerstroke"
       id="path-effect1132"
       is_visible="true"
       lpeversion="1"
       offset_points="0,0.1322915"
       sort_points="true"
       interpolator_type="CubicBezierJohan"
       interpolator_beta="0.2"
       start_linecap_type="zerowidth"
       linejoin_type="extrp_arc"
       miter_limit="4"
       scale_width="1"
       end_linecap_type="zerowidth" />
    <inkscape:path-effect
       effect="simplify"
       id="path-effect1130"
       is_visible="true"
       lpeversion="1"
       steps="1"
       threshold="0.00108696"
       smooth_angles="360"
       helper_size="0"
       simplify_individual_paths="false"
       simplify_just_coalesce="false" />
    <inkscape:path-effect
       effect="simplify"
       id="path-effect1126"
       is_visible="true"
       lpeversion="1"
       steps="1"
       threshold="0.00108696"
       smooth_angles="360"
       helper_size="0"
       simplify_individual_paths="false"
       simplify_just_coalesce="false" />
    <inkscape:path-effect
       effect="skeletal"
       id="path-effect1120"
       is_visible="true"
       lpeversion="1"
       pattern="M 0,5 C 0,2.24 2.24,0 5,0 7.76,0 10,2.24 10,5 10,7.76 7.76,10 5,10 2.24,10 0,7.76 0,5 Z"
       copytype="single_stretched"
       prop_scale="1"
       scale_y_rel="false"
       spacing="0"
       normal_offset="0"
       tang_offset="0"
       prop_units="false"
       vertical_pattern="false"
       hide_knot="false"
       fuse_tolerance="0" />
    <inkscape:path-effect
       effect="simplify"
       id="path-effect1118"
       is_visible="true"
       lpeversion="1"
       steps="1"
       threshold="0.00108696"
       smooth_angles="360"
       helper_size="0"
       simplify_individual_paths="false"
       simplify_just_coalesce="false" />
    <inkscape:path-effect
       effect="skeletal"
       id="path-effect1114"
       is_visible="true"
       lpeversion="1"
       pattern="M 0,5 C 0,2.24 2.24,0 5,0 7.76,0 10,2.24 10,5 10,7.76 7.76,10 5,10 2.24,10 0,7.76 0,5 Z"
       copytype="single_stretched"
       prop_scale="1"
       scale_y_rel="false"
       spacing="0"
       normal_offset="0"
       tang_offset="0"
       prop_units="false"
       vertical_pattern="false"
       hide_knot="false"
       fuse_tolerance="0" />
    <inkscape:path-effect
       effect="simplify"
       id="path-effect1112"
       is_visible="true"
       lpeversion="1"
       steps="1"
       threshold="0.000408163"
       smooth_angles="360"
       helper_size="0"
       simplify_individual_paths="false"
       simplify_just_coalesce="false" />
    <inkscape:path-effect
       effect="skeletal"
       id="path-effect1108"
       is_visible="true"
       lpeversion="1"
       pattern="M 0,5 C 0,2.24 2.24,0 5,0 7.76,0 10,2.24 10,5 10,7.76 7.76,10 5,10 2.24,10 0,7.76 0,5 Z"
       copytype="single_stretched"
       prop_scale="1"
       scale_y_rel="false"
       spacing="0"
       normal_offset="0"
       tang_offset="0"
       prop_units="false"
       vertical_pattern="false"
       hide_knot="false"
       fuse_tolerance="0" />
    <inkscape:path-effect
       effect="simplify"
       id="path-effect1106"
       is_visible="true"
       lpeversion="1"
       steps="1"
       threshold="0.000408163"
       smooth_angles="360"
       helper_size="0"
       simplify_individual_paths="false"
       simplify_just_coalesce="false" />
    <inkscape:path-effect
       effect="bspline"
       id="path-effect1100"
       is_visible="true"
       lpeversion="1"
       weight="33.333333"
       steps="2"
       helper_size="0"
       apply_no_weight="true"
       apply_with_weight="true"
       only_selected="false" />
    <inkscape:path-effect
       effect="bspline"
       id="path-effect1096"
       is_visible="true"
       lpeversion="1"
       weight="33.333333"
       steps="2"
       helper_size="0"
       apply_no_weight="true"
       apply_with_weight="true"
       only_selected="false" />
    <linearGradient
       id="linearGradient1066"
       osb:paint="gradient">
      <stop
         style="stop-color:#37c8ab;stop-opacity:1;"
         offset="0"
         id="stop1062" />
      <stop
         style="stop-color:#37c8ab;stop-opacity:0;"
         offset="1"
         id="stop1064" />
    </linearGradient>
    <inkscape:perspective
       sodipodi:type="inkscape:persp3d"
       inkscape:vp_x="-2.6230908e-14 : -142.79441 : 0"
       inkscape:vp_y="0 : 1000 : 0"
       inkscape:vp_z="8.7436354e-15 : -142.7944 : 0"
       inkscape:persp3d-origin="135.46667 : 90.31111 : 1"
       id="perspective863" />
  </defs>
  <sodipodi:namedview
     id="base"
     pagecolor="#ffffff"
     bordercolor="#666666"
     borderopacity="1.0"
     inkscape:pageopacity="0.0"
     inkscape:pageshadow="2"
     inkscape:zoom="0.60850961"
     inkscape:cx="138.56497"
     inkscape:cy="554.46034"
     inkscape:document-units="mm"
     inkscape:current-layer="g853"
     inkscape:document-rotation="0"
     showgrid="false"
     units="px"
     inkscape:window-width="1440"
     inkscape:window-height="872"
     inkscape:window-x="0"
     inkscape:window-y="0"
     inkscape:window-maximized="0"
     showguides="false" />
  <metadata
     id="metadata5">
    <rdf:RDF>
      <cc:Work
         rdf:about="">
        <dc:format>image/svg+xml</dc:format>
        <dc:type
           rdf:resource="http://purl.org/dc/dcmitype/StillImage" />
        <dc:title></dc:title>
      </cc:Work>
    </rdf:RDF>
  </metadata>
  <g
     inkscape:groupmode="layer"
     id="layer2"
     inkscape:label="Background"
     sodipodi:insensitive="true">
    <rect
       style="fill:#333333;fill-opacity:1;fill-rule:nonzero;stroke:#00d4aa;stroke-width:0;stroke-linejoin:round;stroke-miterlimit:4;stroke-dasharray:none;paint-order:stroke fill markers"
       id="rect1090"
       width="270.93332"
       height="270.93332"
       x="5e-07"
       y="5e-07" />
  </g>
  <g
     inkscape:label="Ring-BLTR"
     inkscape:groupmode="layer"
     id="g857"
     style="display:inline">
    <path
       id="ellipse855"
       style="fill:#333333;stroke:#00d4aa;stroke-width:7.43753;stroke-linejoin:round;stroke-miterlimit:4;stroke-dasharray:none"
       transform="rotate(60)"
       d="M 185.37305 -164.16406 C 177.43071 -162.92951 171.0453 -156.76089 167.76668 -149.65892 C 159.84818 -134.18232 155.02258 -117.13385 153.74419 -99.791879 C 153.29655 -94.794239 152.37402 -89.859804 151.51562 -84.923828 C 150.50528 -76.977495 150.50362 -68.948426 149.74987 -60.979171 C 149.32421 -54.079452 149.74668 -47.168324 150.2431 -40.28712 C 150.38077 -32.580627 149.75385 -24.806255 151.16211 -17.17531 C 152.17989 -9.6583976 153.37403 -2.1674994 154.78358 5.2858575 C 155.97264 11.777641 156.50459 18.404474 158.42434 24.745431 C 160.23678 31.110455 162.45906 37.352954 164.46094 43.65625 C 166.49247 48.486981 170.2247 52.277973 173.42875 56.318203 C 175.01906 59.334563 176.60304 63.044713 180.21618 64.024188 C 186.50525 66.234882 193.65397 63.085049 197.44886 57.876337 C 201.24252 53.007038 204.12849 47.505209 207.88086 42.607422 C 210.79344 37.929637 211.85603 32.390619 212.15911 26.960842 C 212.76563 20.720606 214.66138 14.711872 215.5217 8.5132777 C 216.37054 2.7707725 217.24694 -2.9962801 217.29883 -8.8105469 C 217.41038 -13.196136 218.60934 -17.450578 218.80726 -21.827984 C 219.16044 -27.105479 219.46563 -32.386826 219.95974 -37.652959 C 220.16592 -41.996405 219.73353 -46.349375 220.22891 -50.682488 C 220.81902 -56.865261 220.32083 -63.069599 220.05299 -69.255022 C 219.38455 -80.776232 218.23377 -92.299115 216.02982 -103.63371 C 215.19784 -106.80208 214.039 -110.05501 213.66834 -113.22747 C 212.90578 -117.68626 211.57923 -122.02114 210.38733 -126.37588 C 208.39755 -132.25983 206.46303 -138.16822 204.42188 -144.03125 C 201.69144 -150.07798 196.85718 -154.79044 192.35938 -159.5332 C 190.48361 -161.26366 188.60651 -163.23602 186.16406 -164.10938 C 185.90347 -164.15625 185.63765 -164.17618 185.37305 -164.16406 z " />
  </g>
  <g
     inkscape:label="Ring-vertical"
     inkscape:groupmode="layer"
     id="g853"
     style="display:inline">
    <path
       id="ellipse851"
       style="fill:#333333;stroke:#00d4aa;stroke-width:7.43753;stroke-linejoin:round;stroke-miterlimit:4;stroke-dasharray:none"
       d="M 135.79883 21.365234 C 128.65085 22.149358 122.78601 27.676286 120.09644 34.130965 C 117.21587 38.355551 115.75785 43.315062 113.67033 47.925627 C 111.43565 51.625433 109.07244 55.590099 109.17733 60.067733 C 108.7507 63.875793 107.09224 67.408672 106.50977 71.191406 C 104.29976 81.445369 102.72769 91.826258 101.32772 102.21755 C 100.17154 111.28811 99.731177 120.43746 99.867224 129.5778 C 99.848096 148.95326 100.57755 168.45383 104.35152 187.50676 C 105.41498 191.96743 106.5402 196.41499 107.3146 200.93743 C 108.60628 206.541 110.40708 212.01251 112.07507 217.51096 C 113.43769 221.6737 115.49117 225.55056 117.38672 229.48047 C 118.93529 233.10155 119.50874 237.43692 122.70117 240.09375 C 125.57577 242.6796 129.06408 244.4802 131.87258 247.14717 C 134.74889 249.52109 139.13339 249.21703 141.95943 246.91951 C 146.60302 243.1722 149.25994 237.67624 152.59961 232.85742 C 156.56702 226.32412 158.66954 218.86521 159.96674 211.388 C 161.94121 203.6978 166.31795 196.70922 167.08899 188.69762 C 168.35745 179.89238 169.26183 171.03631 170.05633 162.17718 C 170.92721 151.2734 171.55388 140.29593 170.77241 129.36983 C 170.13996 124.67942 170.01461 119.92888 170.42742 115.21522 C 170.45697 110.10053 168.90988 105.1368 168.8588 100.02379 C 168.64462 95.005636 168.22667 89.979469 167.02133 85.089554 C 165.98924 80.421724 165.06459 75.724911 164.05734 71.056237 C 163.06363 68.079299 161.95325 65.073023 161.99019 61.887359 C 161.81117 58.116984 161.05057 54.366611 159.40439 50.951913 C 156.80822 45.195931 152.87929 40.117373 150.70058 34.158858 C 148.97939 30.13629 146.38968 26.40231 142.72657 23.924428 C 140.72811 22.444432 138.33923 21.294726 135.79883 21.365234 z " />
  </g>
  <g
     inkscape:label="Ring-TRBL"
     inkscape:groupmode="layer"
     id="g861"
     style="display:inline">
    <path
       id="ellipse859"
       style="fill:#333333;stroke:#00d4aa;stroke-width:7.43753;stroke-linejoin:round;stroke-miterlimit:4;stroke-dasharray:none"
       transform="rotate(-60)"
       d="M -50.023438 70.181641 C -57.808121 71.331517 -64.068613 77.538576 -66.825511 84.695902 C -74.719147 101.95508 -78.830863 120.65342 -81.705298 139.3284 C -83.059162 148.78928 -84.230197 158.29374 -84.761719 167.83789 C -84.78665 177.27877 -83.753432 186.68696 -83.742455 196.12665 C -83.389523 201.09952 -83.372626 206.10756 -83.972656 211.05859 C -83.958338 217.08176 -82.233467 222.94891 -82.179688 228.97266 C -81.790659 234.79924 -80.503798 240.50594 -79.250597 246.19114 C -78.228666 251.99569 -77.292403 257.92208 -74.646484 263.25586 C -72.788653 267.61825 -71.4836 272.20929 -70.763008 276.89056 C -68.969595 283.06306 -63.872544 287.38673 -60.853516 292.89453 C -59.033689 295.93171 -56.355922 298.63311 -52.841316 299.55569 C -48.857903 300.70129 -44.003243 299.56476 -41.608001 296.00056 C -39.570247 293.14877 -37.346398 290.38246 -35.165147 287.60564 C -30.145935 279.07747 -26.870605 269.6821 -23.39974 260.45761 C -20.778228 251.36803 -20.348923 241.84568 -18.336197 232.62887 C -16.390698 220.17059 -15.476368 207.58329 -14.325193 195.03554 C -13.738032 186.61713 -14.17637 178.1671 -15.052256 169.7862 C -15.56929 161.44157 -15.861731 153.04133 -17.59375 144.83398 C -19.301664 135.40268 -21.197938 125.96851 -21.810755 116.38763 C -23.040962 110.30152 -26.953668 105.11821 -27.929141 98.952337 C -29.645481 91.827356 -31.357813 84.310093 -36.253726 78.598529 C -39.612941 74.357894 -44.279718 70.111235 -50.023438 70.181641 z " />
  </g>
  <g
     inkscape:groupmode="layer"
     id="layer1"
     inkscape:label="Center">
    <path
       id="path1092"
       style="display:inline;fill:#ff2535;fill-opacity:1;fill-rule:nonzero;stroke:#333333;stroke-width:0;stroke-linejoin:round;stroke-miterlimit:4;stroke-dasharray:none;paint-order:stroke fill markers"
       d="M 144.28125 114.03906 C 137.48865 115.43489 130.3772 113.05465 123.70043 115.23377 C 117.89694 118.14177 113.80997 123.74729 111.64453 129.75195 C 109.71435 136.68247 112.35194 144.13873 116.86331 149.48942 C 119.3505 152.50153 121.92983 155.5536 125.16132 157.79091 C 127.57938 159.389 130.62945 159.75815 133.40234 158.98828 C 136.96153 158.17453 140.43524 156.96077 144.08789 156.60156 C 148.47862 155.85334 152.3462 153.52975 156.20508 151.44531 C 159.48976 149.52252 161.75828 146.0846 162.57227 142.41211 C 163.126 138.32902 160.8586 134.63995 159.77895 130.84098 C 158.25037 126.29002 156.3209 121.60358 152.48828 118.49414 C 150.1581 116.41639 147.41231 114.56163 144.28125 114.03906 z " />
  </g>
</svg>
